<svg width="275" height="84" viewBox="0 0 275 84" fill="none" xmlns="http://www.w3.org/2000/svg">
<path d="M227.725 3.27511C230.956 1.26929 235.044 1.26929 238.275 3.27511L250.85 11.0829L263.899 18.0694C267.252 19.8642 269.296 23.4051 269.174 27.2057L268.7 42L269.174 56.7943C269.296 60.5949 267.252 64.1358 263.899 65.9306L250.85 72.9171L238.275 80.7249C235.044 82.7307 230.956 82.7307 227.725 80.7249L215.15 72.9171L202.101 65.9306C198.748 64.1358 196.704 60.5949 196.826 56.7943L197.3 42L196.826 27.2057C196.704 23.4051 198.748 19.8642 202.101 18.0694L215.15 11.0829L227.725 3.27511Z" fill="#3883f6"/>
<rect x="213" y="49.3848" width="26" height="5" transform="rotate(-45 213 49.3848)" fill="white"/>
<rect x="216.865" y="31.3059" width="26" height="5" transform="rotate(45 216.865 31.3059)" fill="white"/>
<path d="M252.393 37.6579C252.299 36.5314 251.238 33.8223 247.488 33.3686C244.264 32.9786 241.601 34.4084 241.041 37.6579C240.884 38.5678 240.946 41.1925 245.666 41.9473C247.829 42.2933 248.048 41.9473 250.711 42.7272C253.373 43.5071 253.388 46.9605 252.393 48.5763C250.711 51.3059 248.188 51.3059 247.488 51.3059C245.526 51.3059 241.882 51.0459 241.041 47.6664" stroke="white" stroke-width="4"/>
<path d="M23.36 44.44C23.36 45.24 23.3067 45.96 23.2 46.6H7C7.13333 48.2 7.69333 49.4533 8.68 50.36C9.66667 51.2667 10.88 51.72 12.32 51.72C14.4 51.72 15.88 50.8267 16.76 49.04H22.8C22.16 51.1733 20.9333 52.9333 19.12 54.32C17.3067 55.68 15.08 56.36 12.44 56.36C10.3067 56.36 8.38667 55.8933 6.68 54.96C5 54 3.68 52.6533 2.72 50.92C1.78667 49.1867 1.32 47.1867 1.32 44.92C1.32 42.6267 1.78667 40.6133 2.72 38.88C3.65333 37.1467 4.96 35.8133 6.64 34.88C8.32 33.9467 10.2533 33.48 12.44 33.48C14.5467 33.48 16.4267 33.9333 18.08 34.84C19.76 35.7467 21.0533 37.04 21.96 38.72C22.8933 40.3733 23.36 42.28 23.36 44.44ZM17.56 42.84C17.5333 41.4 17.0133 40.2533 16 39.4C14.9867 38.52 13.7467 38.08 12.28 38.08C10.8933 38.08 9.72 38.5067 8.76 39.36C7.82667 40.1867 7.25333 41.3467 7.04 42.84H17.56ZM33.0475 26.4V56H27.4475V26.4H33.0475ZM59.1803 44.44C59.1803 45.24 59.127 45.96 59.0203 46.6H42.8203C42.9536 48.2 43.5136 49.4533 44.5003 50.36C45.487 51.2667 46.7003 51.72 48.1403 51.72C50.2203 51.72 51.7003 50.8267 52.5803 49.04H58.6203C57.9803 51.1733 56.7536 52.9333 54.9403 54.32C53.127 55.68 50.9003 56.36 48.2603 56.36C46.127 56.36 44.207 55.8933 42.5003 54.96C40.8203 54 39.5003 52.6533 38.5403 50.92C37.607 49.1867 37.1403 47.1867 37.1403 44.92C37.1403 42.6267 37.607 40.6133 38.5403 38.88C39.4736 37.1467 40.7803 35.8133 42.4603 34.88C44.1403 33.9467 46.0736 33.48 48.2603 33.48C50.367 33.48 52.247 33.9333 53.9003 34.84C55.5803 35.7467 56.8736 37.04 57.7803 38.72C58.7136 40.3733 59.1803 42.28 59.1803 44.44ZM53.3803 42.84C53.3536 41.4 52.8336 40.2533 51.8203 39.4C50.807 38.52 49.567 38.08 48.1003 38.08C46.7136 38.08 45.5403 38.5067 44.5803 39.36C43.647 40.1867 43.0736 41.3467 42.8603 42.84H53.3803ZM90.7878 33.52C93.5078 33.52 95.6945 34.36 97.3478 36.04C99.0278 37.6933 99.8678 40.0133 99.8678 43V56H94.2678V43.76C94.2678 42.0267 93.8278 40.7067 92.9478 39.8C92.0678 38.8667 90.8678 38.4 89.3478 38.4C87.8278 38.4 86.6145 38.8667 85.7078 39.8C84.8278 40.7067 84.3878 42.0267 84.3878 43.76V56H78.7878V43.76C78.7878 42.0267 78.3478 40.7067 77.4678 39.8C76.5878 38.8667 75.3878 38.4 73.8678 38.4C72.3211 38.4 71.0945 38.8667 70.1878 39.8C69.3078 40.7067 68.8678 42.0267 68.8678 43.76V56H63.2678V33.84H68.8678V36.52C69.5878 35.5867 70.5078 34.8533 71.6278 34.32C72.7745 33.7867 74.0278 33.52 75.3878 33.52C77.1211 33.52 78.6678 33.8933 80.0278 34.64C81.3878 35.36 82.4411 36.4 83.1878 37.76C83.9078 36.48 84.9478 35.4533 86.3078 34.68C87.6945 33.9067 89.1878 33.52 90.7878 33.52ZM125.782 44.44C125.782 45.24 125.729 45.96 125.622 46.6H109.422C109.555 48.2 110.115 49.4533 111.102 50.36C112.089 51.2667 113.302 51.72 114.742 51.72C116.822 51.72 118.302 50.8267 119.182 49.04H125.222C124.582 51.1733 123.355 52.9333 121.542 54.32C119.729 55.68 117.502 56.36 114.862 56.36C112.729 56.36 110.809 55.8933 109.102 54.96C107.422 54 106.102 52.6533 105.142 50.92C104.209 49.1867 103.742 47.1867 103.742 44.92C103.742 42.6267 104.209 40.6133 105.142 38.88C106.075 37.1467 107.382 35.8133 109.062 34.88C110.742 33.9467 112.675 33.48 114.862 33.48C116.969 33.48 118.849 33.9333 120.502 34.84C122.182 35.7467 123.475 37.04 124.382 38.72C125.315 40.3733 125.782 42.28 125.782 44.44ZM119.982 42.84C119.955 41.4 119.435 40.2533 118.422 39.4C117.409 38.52 116.169 38.08 114.702 38.08C113.315 38.08 112.142 38.5067 111.182 39.36C110.249 40.1867 109.675 41.3467 109.462 42.84H119.982ZM142.149 33.52C144.789 33.52 146.923 34.36 148.549 36.04C150.176 37.6933 150.989 40.0133 150.989 43V56H145.389V43.76C145.389 42 144.949 40.6533 144.069 39.72C143.189 38.76 141.989 38.28 140.469 38.28C138.923 38.28 137.696 38.76 136.789 39.72C135.909 40.6533 135.469 42 135.469 43.76V56H129.869V33.84H135.469V36.6C136.216 35.64 137.163 34.8933 138.309 34.36C139.483 33.8 140.763 33.52 142.149 33.52ZM162.835 38.44V49.16C162.835 49.9067 163.008 50.4533 163.355 50.8C163.728 51.12 164.341 51.28 165.195 51.28H167.795V56H164.275C159.555 56 157.195 53.7067 157.195 49.12V38.44H154.555V33.84H157.195V28.36H162.835V33.84H167.795V38.44H162.835ZM180.303 56.36C178.489 56.36 176.863 56.04 175.423 55.4C173.983 54.7333 172.836 53.84 171.983 52.72C171.156 51.6 170.703 50.36 170.623 49H176.263C176.369 49.8533 176.783 50.56 177.503 51.12C178.249 51.68 179.169 51.96 180.263 51.96C181.329 51.96 182.156 51.7467 182.743 51.32C183.356 50.8933 183.663 50.3467 183.663 49.68C183.663 48.96 183.289 48.4267 182.543 48.08C181.823 47.7067 180.663 47.3067 179.062 46.88C177.409 46.48 176.049 46.0667 174.983 45.64C173.943 45.2133 173.036 44.56 172.263 43.68C171.516 42.8 171.143 41.6133 171.143 40.12C171.143 38.8933 171.489 37.7733 172.183 36.76C172.903 35.7467 173.916 34.9467 175.223 34.36C176.556 33.7733 178.116 33.48 179.903 33.48C182.543 33.48 184.649 34.1467 186.223 35.48C187.796 36.7867 188.663 38.56 188.823 40.8H183.463C183.383 39.92 183.009 39.2267 182.343 38.72C181.703 38.1867 180.836 37.92 179.743 37.92C178.729 37.92 177.943 38.1067 177.383 38.48C176.849 38.8533 176.583 39.3733 176.583 40.04C176.583 40.7867 176.956 41.36 177.703 41.76C178.449 42.1333 179.609 42.52 181.183 42.92C182.783 43.32 184.103 43.7333 185.143 44.16C186.183 44.5867 187.076 45.2533 187.823 46.16C188.596 47.04 188.996 48.2133 189.023 49.68C189.023 50.96 188.663 52.1067 187.943 53.12C187.249 54.1333 186.236 54.9333 184.903 55.52C183.596 56.08 182.063 56.36 180.303 56.36Z" fill="#283051"/>
</svg>
